<svg xmlns="http://www.w3.org/2000/svg" width="477" height="293" font-family="serif" font-size="16">
  <path fill="#fff" stroke="#000" stroke-width="2" d="M10 53h100v80H10z"/>
  <text x="18" y="99">
    <tspan x="40.266" y="99">Client</tspan>
  </text>
  <text x="237" y="28">
    <tspan x="241.766" y="28">Enterprise Bean Server</tspan>
  </text>
  <path fill="#fff" stroke="#000" stroke-width="2" d="M166 42h300v100H166z"/>
  <text x="176" y="79" font-style="italic">
    <tspan x="187.727" y="79">begin</tspan>
  </text>
  <path fill="none" stroke="#000" stroke-width="2" d="M115 92.966l130-.897 5-.035M244 86l6 6.034L244 98"/>
  <text x="176" y="117" font-style="italic">
    <tspan x="181.367" y="117">commit</tspan>
  </text>
  <path fill="#fff" stroke="#000" stroke-width="2" d="M267.667 72h50.666C324.667 72 331 82 331 92s-6.333 20-12.667 20h-50.666C261.333 112 255 102 255 92s6.333-20 12.667-20"/>
  <text x="264" y="98">
    <tspan x="287.594" y="98">X</tspan>
  </text>
  <path fill="none" stroke="#000" stroke-width="2" d="M292.929 117l-.786 55-.072 5m5.929-6l-5.929 6-6.071-6"/>
  <path fill="#fff" stroke="#000" stroke-width="2" d="M242 198.667v66.666c0 8.334 25 16.667 50 16.667s50-8.333 50-16.667v-66.666c0 8.333-25 16.666-50 16.666s-50-8.333-50-16.666c0-8.334 25-16.667 50-16.667s50 8.333 50 16.667"/>
  <text x="250" y="254">
    <tspan x="256.898" y="254">database A</tspan>
  </text>
  <path fill="none" stroke="#000" stroke-width="2" d="M336 92h29m-6-6l6 6-6 6"/>
  <path fill="#fff" stroke="#000" stroke-width="2" d="M382.167 72h48.666C436.917 72 443 82 443 92s-6.083 20-12.167 20h-48.666C376.083 112 370 102 370 92s6.083-20 12.167-20"/>
  <text x="379" y="98">
    <tspan x="401.094" y="98">Y</tspan>
  </text>
  <path fill="none" stroke="#000" stroke-width="2" d="M406.536 117l.393 55 .035 5m6.036-6l-6.036 6-5.964-6"/>
  <path fill="#fff" stroke="#000" stroke-width="2" d="M357 198.667v66.666c0 8.334 25 16.667 50 16.667s50-8.333 50-16.667v-66.666c0 8.333-25 16.666-50 16.666s-50-8.333-50-16.666c0-8.334 25-16.667 50-16.667s50 8.333 50 16.667"/>
  <text x="365" y="254">
    <tspan x="372.125" y="254">database B</tspan>
  </text>
</svg>
