<svg xmlns="http://www.w3.org/2000/svg" width="592" height="370" font-family="serif" font-size="16">
  <text x="75" y="141">
    <tspan x="83.766" y="141">Client</tspan>
  </text>
  <path fill="#fff" stroke="#000" stroke-width="2" d="M53 156h100v80H53z"/>
  <text x="75" y="182" font-style="italic">
    <tspan x="85.727" y="182">begin</tspan>
  </text>
  <text x="75" y="223" font-style="italic">
    <tspan x="79.367" y="223">commit</tspan>
  </text>
  <text x="236" y="30">
    <tspan x="240.766" y="30">Enterprise Bean Server</tspan>
  </text>
  <path fill="#fff" stroke="#000" stroke-width="2" d="M228 41h180v100H228z"/>
  <path fill="none" stroke="#000" stroke-width="2" d="M156.854 192.814l115.439-95.442 3.853-3.186M268 93l8.146 1.186L275 102"/>
  <path fill="#fff" stroke="#000" stroke-width="2" d="M292.667 71h50.666C349.667 71 356 81 356 91s-6.333 20-12.667 20h-50.666C286.333 111 280 101 280 91s6.333-20 12.667-20"/>
  <text x="289" y="97">
    <tspan x="312.594" y="97">X</tspan>
  </text>
  <path fill="none" stroke="#000" stroke-width="2" d="M361 91h92m-6-6l6 6-6 6"/>
  <path fill="#fff" stroke="#000" stroke-width="2" d="M458 57.667v66.666c0 8.334 25 16.667 50 16.667s50-8.333 50-16.667V57.667c0 8.333-25 16.666-50 16.666S458 66 458 57.667C458 49.333 483 41 508 41s50 8.333 50 16.667"/>
  <text x="466" y="113">
    <tspan x="472.898" y="113">database A</tspan>
  </text>
  <text x="236" y="236">
    <tspan x="240.766" y="236">Enterprise Bean Server</tspan>
  </text>
  <path fill="#fff" stroke="#000" stroke-width="2" d="M228 248h180v99H228z"/>
  <path fill="none" stroke="#000" stroke-width="2" d="M156.854 199.186l115.439 95.442 3.853 3.186M275 290l1.146 7.814L268 299"/>
  <path fill="#fff" stroke="#000" stroke-width="2" d="M292.667 281h50.666c6.334 0 12.667 10 12.667 20s-6.333 20-12.667 20h-50.666C286.333 321 280 311 280 301s6.333-20 12.667-20"/>
  <text x="289" y="307">
    <tspan x="312.594" y="307">Y</tspan>
  </text>
  <path fill="none" stroke="#000" stroke-width="2" d="M361 300.951l87-.853 5-.049M447 294l6 6.049-6 5.951"/>
  <path fill="#fff" stroke="#000" stroke-width="2" d="M458 266.667v66.666c0 8.334 25 16.667 50 16.667s50-8.333 50-16.667v-66.666c0 8.333-25 16.666-50 16.666s-50-8.333-50-16.666c0-8.334 25-16.667 50-16.667s50 8.333 50 16.667"/>
  <text x="466" y="322">
    <tspan x="473.125" y="322">database B</tspan>
  </text>
</svg>
