<svg xmlns="http://www.w3.org/2000/svg" width="345" height="378" font-family="serif" font-size="16">
  <text x="10" y="20" font-style="italic">
    <tspan>After Change:</tspan>
  </text>
  <rect width="72" height="36" x="30" y="122" fill="#fff" stroke="#000" stroke-width="2" rx="18" ry="15"/>
  <text x="30" y="122">
    <tspan dx="27" dy="24">a1</tspan>
  </text>
  <path fill="none" stroke="#000" stroke-width="2" d="M110 131l-7.419 3.757L99 128m3.581 6.757l25.257-75.77 1.58-4.744M122 58l7.419-3.757L133 61"/>
  <rect width="72" height="36" x="132" y="32" fill="#fff" stroke="#000" stroke-width="2" rx="18" ry="15"/>
  <text x="132" y="32">
    <tspan dx="25" dy="22">b1</tspan><tspan dy="5" font-size=".75em">1</tspan>
  </text>
  <path fill="none" stroke="#000" stroke-width="2" d="M112 136l-7.588-.155L104 128m.412 7.845l45.765-49.035 3.411-3.656M146 83l7.588.155L154 91"/>
  <rect width="72" height="36" x="158" y="62" fill="#fff" stroke="#000" stroke-width="2" rx="18" ry="15"/>
  <text x="158" y="62">
    <tspan dx="25" dy="22">b1</tspan><tspan dy="5" font-size=".75em">2</tspan>
  </text>
  <path fill="none" stroke="#000" stroke-width="2" d="M113 141l-7.304-3.218L109 131m-3.304 6.782l67.913-24.846 4.695-1.718M171 108l7.304 3.218L175 118"/>
  <rect width="72" height="36" x="182" y="92" fill="#fff" stroke="#000" stroke-width="2" rx="18" ry="15"/>
  <text x="182" y="92">
    <tspan dx="25" dy="22">b1</tspan><tspan dy="5" font-size=".75em">3</tspan>
  </text>
  <path fill="none" stroke="#000" stroke-width="2" d="M112 145l-6-5.5 6-5.5m-6 5.5h96m-6-5.5l6 5.5-6 5.5"/>
  <rect width="72" height="36" x="206" y="122" fill="#fff" stroke="#000" stroke-width="2" rx="18" ry="15"/>
  <text x="206" y="122">
    <tspan dx="25" dy="22">b1</tspan><tspan dy="5" font-size=".75em">n-1</tspan>
  </text>
  <path fill="none" stroke="#000" stroke-width="2" d="M110 147l-4.134-6.349L113 136m-7.134 4.651l116.403 27.546 4.865 1.152M223 163l4.134 6.349L220 174"/>
  <rect width="72" height="36" x="230" y="152" fill="#fff" stroke="#000" stroke-width="2" rx="18" ry="15"/>
  <text x="230" y="152">
    <tspan dx="25" dy="22">b1</tspan><tspan dy="5" font-size=".75em">n</tspan>
  </text>
  <path fill="none" stroke="#000" stroke-width="2" d="M109 149l-3.354-7.15L113 139m-7.354 2.849l138.063 54.953 4.645 1.849M245 191l3.354 7.651L241 202"/>
  <rect width="72" height="36" x="252" y="182" fill="#fff" stroke="#000" stroke-width="2" rx="18" ry="15"/>
  <text x="252" y="182">
    <tspan dx="25" dy="22">b2</tspan><tspan dy="5" font-size=".75em">m</tspan>
  </text>
  <rect width="72" height="36" x="30" y="274" fill="#fff" stroke="#000" stroke-width="2" rx="18" ry="15"/>
  <text x="30" y="274">
    <tspan dx="27" dy="24">a2</tspan>
  </text>
  <path fill="none" stroke="#000" stroke-width="2" d="M111 295l-7.126-4.616L108 284m-4.126 6.384l116.378-26.652 4.874-1.116M218 258l7.126 4.616L221 269"/>
  <rect width="72" height="36" x="230" y="244" fill="#fff" stroke="#000" stroke-width="2" rx="18" ry="15"/>
  <text x="230" y="244">
    <tspan dx="25" dy="22">b2</tspan><tspan dy="5" font-size=".75em">1</tspan>
  </text>
  <path fill="none" stroke="#000" stroke-width="2" d="M110 297l-6-5.453 6-5.547m-6 5.547l91 .859 5 .047M194 287l6 5.453-6 5.547"/>
  <rect width="72" height="36" x="206" y="274" fill="#fff" stroke="#000" stroke-width="2" rx="18" ry="15"/>
  <text x="206" y="274">
    <tspan dx="25" dy="22">b2</tspan><tspan dy="5" font-size=".75em">2</tspan>
  </text>
  <path fill="none" stroke="#000" stroke-width="2" d="M107 301l-3.323-7.732L111 290m-7.323 3.268l67.97 25.696 4.676 1.768M173 313l3.323 7.732L169 324"/>
  <rect width="72" height="36" x="182" y="304" fill="#fff" stroke="#000" stroke-width="2" rx="18" ry="15"/>
  <text x="182" y="304">
    <tspan dx="25" dy="22">b2</tspan><tspan dy="5" font-size=".75em">3</tspan>
  </text>
  <path fill="none" stroke="#000" stroke-width="2" d="M102 303l.381-7.817L110 296m-7.619-.817l45.856 49.95 3.382 3.684M152 341l-.381 7.817L144 348"/>
  <rect width="72" height="36" x="158" y="334" fill="#fff" stroke="#000" stroke-width="2" rx="18" ry="15"/>
  <text x="158" y="334">
    <tspan dx="25" dy="22">b2</tspan><tspan dy="5" font-size=".75em">m-1</tspan>
  </text>
</svg>
