<svg xmlns="http://www.w3.org/2000/svg" width="300" height="430" font-family="serif" font-size="16">
  <text x="10" y="20" font-style="italic">
    <tspan>After Change:</tspan>
  </text>
  <path fill="#fff" stroke="#000" stroke-width="2" d="M58.667 52h46.666C111.167 52 117 60.75 117 69.5S111.167 87 105.333 87H58.667C52.833 87 47 78.25 47 69.5S52.833 52 58.667 52"/>
  <text x="55" y="75">
    <tspan x="74.445" y="75">a1</tspan>
  </text>
  <path fill="none" stroke="#000" stroke-width="2" d="M203 112l1.657 7.522L197 122m7.657-2.478l-78.972-45.066-4.342-2.478"/>
  <path fill="none" stroke="#000" stroke-width="2" d="M122 70h72m-6-6l6 6-6 6"/>
  <path fill="#fff" stroke="#000" stroke-width="2" d="M210.667 52h46.666C263.167 52 269 60.75 269 69.5S263.167 87 257.333 87h-46.666C204.833 87 199 78.25 199 69.5S204.833 52 210.667 52"/>
  <text x="208" y="75">
    <tspan x="226.594" y="75">b1</tspan>
  </text>
  <path fill="#fff" stroke="#000" stroke-width="2" d="M58.667 122h46.666c5.834 0 11.667 8.75 11.667 17.5s-5.833 17.5-11.667 17.5H58.667C52.833 157 47 148.25 47 139.5S52.833 122 58.667 122"/>
  <text x="55" y="145">
    <tspan x="74.445" y="145">a2</tspan>
  </text>
  <path fill="none" stroke="#000" stroke-width="2" d="M111.73 120.377l87.81-30.131 4.73-1.623M197 85l7.27 3.623L201 96"/>
  <path fill="none" stroke="#000" stroke-width="2" d="M201 183l3.27 7.377L197 194m7.27-3.623l-87.81-30.131-4.73-1.623"/>
  <path fill="#fff" stroke="#000" stroke-width="2" d="M210.667 122h46.666c5.834 0 11.667 8.75 11.667 17.5s-5.833 17.5-11.667 17.5h-46.666c-5.834 0-11.667-8.75-11.667-17.5s5.833-17.5 11.667-17.5"/>
  <text x="208" y="145">
    <tspan x="226.594" y="145">b2</tspan>
  </text>
  <path fill="#fff" stroke="#000" stroke-width="2" d="M58.667 192h46.666c5.834 0 11.667 8.75 11.667 17.5s-5.833 17.5-11.667 17.5H58.667C52.833 227 47 218.25 47 209.5S52.833 192 58.667 192"/>
  <text x="55" y="215">
    <tspan x="74.445" y="215">a3</tspan>
  </text>
  <path fill="none" stroke="#000" stroke-width="2" d="M111.73 190.377l87.81-30.131 4.73-1.623M197 155l7.27 3.623L201 166"/>
  <path fill="none" stroke="#000" stroke-width="2" d="M122 209.5h72m-6-5.5l6 5.5-6 5.5"/>
  <path fill="none" stroke="#000" stroke-width="2" d="M201 253l3.27 7.377L197 264m7.27-3.623l-87.81-30.131-4.73-1.623"/>
  <path fill="#fff" stroke="#000" stroke-width="2" d="M210.667 192h46.666c5.834 0 11.667 8.75 11.667 17.5s-5.833 17.5-11.667 17.5h-46.666c-5.834 0-11.667-8.75-11.667-17.5s5.833-17.5 11.667-17.5"/>
  <text x="208" y="215">
    <tspan x="226.594" y="215">b3</tspan>
  </text>
  <path fill="#fff" stroke="#000" stroke-width="2" d="M58.667 262h46.666c5.834 0 11.667 8.75 11.667 17.5s-5.833 17.5-11.667 17.5H58.667C52.833 297 47 288.25 47 279.5S52.833 262 58.667 262"/>
  <text x="55" y="285">
    <tspan x="74.445" y="285">a4</tspan>
  </text>
  <path fill="none" stroke="#000" stroke-width="2" d="M111.73 260.377l87.81-30.131 4.73-1.623M197 225l7.27 3.623L201 236"/>
  <path fill="none" stroke="#000" stroke-width="2" d="M122 279.5h72m-6-5.5l6 5.5-6 5.5"/>
  <path fill="none" stroke="#000" stroke-width="2" d="M201 323l3.27 7.377L197 334m7.27-3.623l-87.81-30.131-4.73-1.623"/>
  <path fill="#fff" stroke="#000" stroke-width="2" d="M210.667 262h46.666c5.834 0 11.667 8.75 11.667 17.5s-5.833 17.5-11.667 17.5h-46.666c-5.834 0-11.667-8.75-11.667-17.5s5.833-17.5 11.667-17.5"/>
  <text x="208" y="285">
    <tspan x="226.594" y="285">b4</tspan>
  </text>
  <path fill="#fff" stroke="#000" stroke-width="2" d="M58.667 332h46.666c5.834 0 11.667 8.75 11.667 17.5s-5.833 17.5-11.667 17.5H58.667C52.833 367 47 358.25 47 349.5S52.833 332 58.667 332"/>
  <text x="55" y="355">
    <tspan x="74.445" y="355">a5</tspan>
  </text>
  <path fill="none" stroke="#000" stroke-width="2" d="M111.73 330.377l87.81-30.131 4.73-1.623M197 295l7.27 3.623L201 306"/>
  <path fill="none" stroke="#000" stroke-width="2" d="M122 349.5h72m-6-5.5l6 5.5-6 5.5"/>
  <path fill="#fff" stroke="#000" stroke-width="2" d="M210.667 332h46.666c5.834 0 11.667 8.75 11.667 17.5s-5.833 17.5-11.667 17.5h-46.666c-5.834 0-11.667-8.75-11.667-17.5s5.833-17.5 11.667-17.5"/>
  <text x="208" y="355">
    <tspan x="226.594" y="355">b5</tspan>
  </text>
</svg>
