<svg xmlns="http://www.w3.org/2000/svg" width="345" height="378" font-family="serif" font-size="16">
  <text x="10" y="20" font-style="italic">
    <tspan>After Change:</tspan>
  </text>
  <path fill="#fff" stroke="#000" stroke-width="2" d="M81.667 41h46.666C134.167 41 140 49.75 140 58.5S134.167 76 128.333 76H81.667C75.833 76 70 67.25 70 58.5S75.833 41 81.667 41"/>
  <text x="78" y="64">
    <tspan x="97.445" y="64">a1</tspan>
  </text>
  <path fill="none" stroke="#000" stroke-width="2" d="M132 88l1.003-8.002L141 81m-7.997-1.002l82.992 110.506 3.002 3.998M220 187l-1.003 7.502L211 193"/>
  <path fill="none" stroke="#000" stroke-width="2" d="M224 102l3.27 7.377L220 113m7.27-3.623l-87.81-30.131-4.73-1.623M138 85l-3.27-7.377L142 74"/>
  <path fill="none" stroke="#000" stroke-width="2" d="M130 88l2.518-7.68L140 82m-7.482-1.68l94.446 162.04 2.518 4.32M232 239l-2.518 7.68L222 245"/>
  <path fill="#fff" stroke="#000" stroke-width="2" d="M233.667 41h46.666C286.167 41 292 49.75 292 58.5S286.167 76 280.333 76h-46.666C227.833 76 222 67.25 222 58.5S227.833 41 233.667 41"/>
  <text x="231" y="64">
    <tspan x="249.594" y="64">b1</tspan>
  </text>
  <path fill="none" stroke="#000" stroke-width="2" d="M142 113l-7.27-3.623L138 102m-3.27 7.377l87.81-30.131 4.73-1.623M220 74l7.27 3.623L224 85"/>
  <path fill="#fff" stroke="#000" stroke-width="2" d="M81.667 111h46.666c5.834 0 11.667 8.75 11.667 17.5s-5.833 17.5-11.667 17.5H81.667C75.833 146 70 137.25 70 128.5S75.833 111 81.667 111"/>
  <text x="78" y="134">
    <tspan x="97.445" y="134">a2</tspan>
  </text>
  <path fill="none" stroke="#000" stroke-width="2" d="M140 128.5h82m-6-5.5l6 5.5-6 5.5"/>
  <path fill="none" stroke="#000" stroke-width="2" d="M224 172l3.27 7.377L220 183m7.27-3.623l-87.81-30.131-4.73-1.623M138 155l-3.27-7.377L142 144"/>
  <path fill="#fff" stroke="#000" stroke-width="2" d="M233.667 111h46.666c5.834 0 11.667 8.75 11.667 17.5s-5.833 17.5-11.667 17.5h-46.666c-5.834 0-11.667-8.75-11.667-17.5s5.833-17.5 11.667-17.5"/>
  <text x="231" y="134">
    <tspan x="249.594" y="134">b2</tspan>
  </text>
  <path fill="none" stroke="#000" stroke-width="2" d="M142 183l-7.27-3.623L138 172m-3.27 7.377l87.81-30.131 4.73-1.623M220 144l7.27 3.623L224 155"/>
  <path fill="#fff" stroke="#000" stroke-width="2" d="M81.667 181h46.666c5.834 0 11.667 8.75 11.667 17.5s-5.833 17.5-11.667 17.5H81.667C75.833 216 70 207.25 70 198.5S75.833 181 81.667 181"/>
  <text x="78" y="204">
    <tspan x="97.445" y="204">a3</tspan>
  </text>
  <path fill="none" stroke="#000" stroke-width="2" d="M151 204l-6-5.5 6-5.5m-6 5.5h72m-6-5.5l6 5.5-6 5.5"/>
  <path fill="none" stroke="#000" stroke-width="2" d="M224 242l3.27 7.377L220 253m7.27-3.623l-87.81-30.131-4.73-1.623M138 225l-3.27-7.377L142 214"/>
  <path fill="#fff" stroke="#000" stroke-width="2" d="M233.667 181h46.666c5.834 0 11.667 8.75 11.667 17.5s-5.833 17.5-11.667 17.5h-46.666c-5.834 0-11.667-8.75-11.667-17.5s5.833-17.5 11.667-17.5"/>
  <text x="231" y="204">
    <tspan x="249.594" y="204">b3</tspan>
  </text>
  <path fill="none" stroke="#000" stroke-width="2" d="M142 253l-7.27-3.623L138 242m-3.27 7.377l87.81-30.131 4.73-1.623M220 214l7.27 3.623L224 225"/>
  <path fill="#fff" stroke="#000" stroke-width="2" d="M81.667 251h46.666c5.834 0 11.667 8.75 11.667 17.5s-5.833 17.5-11.667 17.5H81.667C75.833 286 70 277.25 70 268.5S75.833 251 81.667 251"/>
  <text x="78" y="274">
    <tspan x="97.445" y="274">a4</tspan>
  </text>
  <path fill="none" stroke="#000" stroke-width="2" d="M151 274l-6-5.5 6-5.5m-6 5.5h72m-6-5.5l6 5.5-6 5.5"/>
  <path fill="none" stroke="#000" stroke-width="2" d="M224 312l3.27 7.377L220 323m7.27-3.623l-87.81-30.131-4.73-1.623M138 295l-3.27-7.377L142 284"/>
  <path fill="#fff" stroke="#000" stroke-width="2" d="M233.667 251h46.666c5.834 0 11.667 8.75 11.667 17.5s-5.833 17.5-11.667 17.5h-46.666c-5.834 0-11.667-8.75-11.667-17.5s5.833-17.5 11.667-17.5"/>
  <text x="231" y="274">
    <tspan x="249.594" y="274">b4</tspan>
  </text>
  <path fill="none" stroke="#000" stroke-width="2" d="M142 323l-7.27-3.623L138 312m-3.27 7.377l87.81-30.131 4.73-1.623M220 284l7.27 3.623L224 295"/>
  <path fill="#fff" stroke="#000" stroke-width="2" d="M81.667 321h46.666c5.834 0 11.667 8.75 11.667 17.5s-5.833 17.5-11.667 17.5H81.667C75.833 356 70 347.25 70 338.5S75.833 321 81.667 321"/>
  <text x="78" y="344">
    <tspan x="97.445" y="344">a5</tspan>
  </text>
  <path fill="none" stroke="#000" stroke-width="2" d="M151 344l-6-5.5 6-5.5m-6 5.5h72m-6-5.5l6 5.5-6 5.5"/>
  <path fill="#fff" stroke="#000" stroke-width="2" d="M233.667 321h46.666c5.834 0 11.667 8.75 11.667 17.5s-5.833 17.5-11.667 17.5h-46.666c-5.834 0-11.667-8.75-11.667-17.5s5.833-17.5 11.667-17.5"/>
  <text x="231" y="344">
    <tspan x="249.594" y="344">b5</tspan>
  </text>
</svg>
